<svg width="35" height="35" viewBox="0 0 35 35" fill="none" xmlns="http://www.w3.org/2000/svg">
<path d="M0 3.28125C0 2.99117 0.115234 2.71297 0.320352 2.50785C0.52547 2.30273 0.803669 2.1875 1.09375 2.1875H4.375C4.61897 2.18757 4.85592 2.2692 5.04816 2.41943C5.2404 2.56965 5.3769 2.77984 5.43594 3.01656L6.32188 6.5625H31.7188C31.8793 6.56265 32.0379 6.59816 32.1833 6.66652C32.3286 6.73487 32.4571 6.83439 32.5596 6.95801C32.6621 7.08162 32.7362 7.2263 32.7765 7.38176C32.8168 7.53722 32.8224 7.69964 32.7928 7.8575L29.5116 25.3575C29.4646 25.6081 29.3316 25.8345 29.1355 25.9975C28.9394 26.1604 28.6925 26.2498 28.4375 26.25H8.75C8.49501 26.2498 8.24811 26.1604 8.05199 25.9975C7.85587 25.8345 7.72286 25.6081 7.67594 25.3575L4.39687 7.89031L3.52188 4.375H1.09375C0.803669 4.375 0.52547 4.25977 0.320352 4.05465C0.115234 3.84953 0 3.57133 0 3.28125ZM6.78562 8.75L9.65781 24.0625H27.5297L30.4019 8.75H6.78562ZM10.9375 26.25C9.77718 26.25 8.66438 26.7109 7.84391 27.5314C7.02344 28.3519 6.5625 29.4647 6.5625 30.625C6.5625 31.7853 7.02344 32.8981 7.84391 33.7186C8.66438 34.5391 9.77718 35 10.9375 35C12.0978 35 13.2106 34.5391 14.0311 33.7186C14.8516 32.8981 15.3125 31.7853 15.3125 30.625C15.3125 29.4647 14.8516 28.3519 14.0311 27.5314C13.2106 26.7109 12.0978 26.25 10.9375 26.25ZM26.25 26.25C25.0897 26.25 23.9769 26.7109 23.1564 27.5314C22.3359 28.3519 21.875 29.4647 21.875 30.625C21.875 31.7853 22.3359 32.8981 23.1564 33.7186C23.9769 34.5391 25.0897 35 26.25 35C27.4103 35 28.5231 34.5391 29.3436 33.7186C30.1641 32.8981 30.625 31.7853 30.625 30.625C30.625 29.4647 30.1641 28.3519 29.3436 27.5314C28.5231 26.7109 27.4103 26.25 26.25 26.25ZM10.9375 28.4375C11.5177 28.4375 12.0741 28.668 12.4843 29.0782C12.8945 29.4884 13.125 30.0448 13.125 30.625C13.125 31.2052 12.8945 31.7616 12.4843 32.1718C12.0741 32.582 11.5177 32.8125 10.9375 32.8125C10.3573 32.8125 9.80094 32.582 9.3907 32.1718C8.98047 31.7616 8.75 31.2052 8.75 30.625C8.75 30.0448 8.98047 29.4884 9.3907 29.0782C9.80094 28.668 10.3573 28.4375 10.9375 28.4375ZM26.25 28.4375C26.8302 28.4375 27.3866 28.668 27.7968 29.0782C28.207 29.4884 28.4375 30.0448 28.4375 30.625C28.4375 31.2052 28.207 31.7616 27.7968 32.1718C27.3866 32.582 26.8302 32.8125 26.25 32.8125C25.6698 32.8125 25.1134 32.582 24.7032 32.1718C24.293 31.7616 24.0625 31.2052 24.0625 30.625C24.0625 30.0448 24.293 29.4884 24.7032 29.0782C25.1134 28.668 25.6698 28.4375 26.25 28.4375V28.4375Z" fill="#374151"/>
</svg>
