<svg width="19" height="17" viewBox="0 0 19 17" fill="none" xmlns="http://www.w3.org/2000/svg">
<path d="M2.28541 7.55715C1.73044 7.12741 2.03942 6.24992 2.74289 6.24992H6.55797C6.70818 6.25042 6.85501 6.2053 6.97902 6.12053C7.10302 6.03575 7.19837 5.91533 7.25244 5.77518M2.28541 7.55715L1.95098 7.92884L1.96322 7.93986M2.28541 7.55715L1.97929 7.95248C1.97388 7.9483 1.96853 7.94409 1.96322 7.93986M2.28541 7.55715L5.00029 9.99986C5.1219 10.0934 5.21078 10.223 5.25416 10.3701C5.29755 10.5172 5.29321 10.6743 5.24178 10.8189L4.25032 15.021C4.00883 15.6953 4.79105 16.2758 5.38127 15.8603L8.3502 1.2667M1.96322 7.93986C1.04076 7.20412 1.58589 5.74992 2.74289 5.74992H6.55797H6.55964C6.60858 5.75009 6.65643 5.73538 6.69684 5.70776C6.73617 5.68088 6.76665 5.64299 6.7845 5.59889M1.96322 7.93986L4.66586 10.3716C4.67543 10.3802 4.68534 10.3884 4.69555 10.3963C4.7334 10.4254 4.76107 10.4657 4.77457 10.5115C4.78808 10.5573 4.78673 10.6062 4.77072 10.6512C4.76456 10.6685 4.75936 10.6862 4.75514 10.704L3.76944 14.8818C3.38846 16.0231 4.70002 16.9373 5.65814 16.2768L9.33675 13.9425C9.34339 13.9383 9.34993 13.9339 9.35637 13.9294C9.39846 13.8998 9.44865 13.8839 9.50009 13.8839C9.55153 13.8839 9.60173 13.8998 9.64382 13.9294C9.65025 13.9339 9.65679 13.9383 9.66343 13.9425L13.3422 16.2768C14.3007 16.937 15.6118 16.0241 15.2308 14.8819L14.245 10.704C14.2408 10.6862 14.2356 10.6685 14.2295 10.6512C14.2135 10.6062 14.2121 10.5573 14.2256 10.5115C14.2391 10.4657 14.2668 10.4254 14.3046 10.3963C14.3148 10.3884 14.3247 10.3802 14.3343 10.3716L17.0371 7.93975C17.9576 7.20467 17.4162 5.74992 16.2565 5.74992H12.4415C12.3385 5.74992 12.2501 5.68728 12.2153 5.59994L10.6649 1.30497L10.6649 1.30494L10.6619 1.297C10.2619 0.245346 8.77092 0.23363 8.3502 1.2667M6.7845 5.59889L6.78215 5.6054L7.25244 5.77518M6.7845 5.59889L8.33458 1.30497C8.33929 1.29192 8.3445 1.27916 8.3502 1.2667M6.7845 5.59889C6.78499 5.59767 6.78548 5.59644 6.78595 5.59521L7.25244 5.77518M7.25244 5.77518L8.3502 1.2667" fill="#FFB946" stroke="#FFB946" stroke-linecap="round" stroke-linejoin="round"/>
</svg>
