<svg width="180" height="180" viewBox="0 0 180 180" fill="none" xmlns="http://www.w3.org/2000/svg">
<path d="M89.8021 10C73.9796 10 58.5124 14.6919 45.3564 23.4824C32.2005 32.2729 21.9467 44.7672 15.8917 59.3853C9.83669 74.0034 8.25243 90.0887 11.3392 105.607C14.4261 121.126 22.0453 135.38 33.2335 146.569C44.4217 157.757 58.6764 165.376 74.1948 168.463C89.7133 171.55 105.799 169.965 120.417 163.91C135.035 157.855 147.529 147.602 156.32 134.446C165.11 121.29 169.802 105.823 169.802 90C169.802 68.7827 161.374 48.4344 146.371 33.4315C131.368 18.4285 111.019 10 89.8021 10V10ZM89.8021 160C75.9574 160 62.4236 155.895 50.9122 148.203C39.4007 140.511 30.4286 129.579 25.1305 116.788C19.8324 103.997 18.4461 89.9223 21.1471 76.3437C23.8481 62.765 30.5149 50.2922 40.3046 40.5025C50.0943 30.7128 62.5671 24.046 76.1458 21.345C89.7244 18.6441 103.799 20.0303 116.59 25.3284C129.381 30.6266 140.313 39.5986 148.005 51.1101C155.697 62.6215 159.802 76.1553 159.802 90C159.802 108.565 152.427 126.37 139.3 139.497C126.172 152.625 108.367 160 89.8021 160Z" fill="#FFB946"/>
<path d="M139.669 60.5005C138.732 59.5693 137.465 59.0466 136.144 59.0466C134.823 59.0466 133.556 59.5693 132.619 60.5005L77.119 115.751L47.119 85.7505C46.204 84.7626 44.9341 84.1786 43.5885 84.127C42.2429 84.0755 40.932 84.5605 39.944 85.4755C38.9561 86.3905 38.3721 87.6605 38.3205 89.0061C38.269 90.3517 38.754 91.6626 39.669 92.6505L77.119 130.001L139.669 67.6005C140.138 67.1357 140.51 66.5827 140.764 65.9734C141.017 65.3641 141.148 64.7106 141.148 64.0505C141.148 63.3905 141.017 62.7369 140.764 62.1277C140.51 61.5184 140.138 60.9654 139.669 60.5005Z" fill="#FFB946"/>
</svg>
