<svg width="18" height="21" viewBox="0 0 18 21" fill="none" xmlns="http://www.w3.org/2000/svg">
<path d="M5.53834 7.61536C5.72195 7.61536 5.89804 7.6883 6.02787 7.81813C6.15771 7.94796 6.23065 8.12405 6.23065 8.30766V16.6154C6.23065 16.799 6.15771 16.9751 6.02787 17.1049C5.89804 17.2347 5.72195 17.3077 5.53834 17.3077C5.35473 17.3077 5.17864 17.2347 5.0488 17.1049C4.91897 16.9751 4.84603 16.799 4.84603 16.6154V8.30766C4.84603 8.12405 4.91897 7.94796 5.0488 7.81813C5.17864 7.6883 5.35473 7.61536 5.53834 7.61536V7.61536ZM8.99988 7.61536C9.18349 7.61536 9.35958 7.6883 9.48941 7.81813C9.61925 7.94796 9.69219 8.12405 9.69219 8.30766V16.6154C9.69219 16.799 9.61925 16.9751 9.48941 17.1049C9.35958 17.2347 9.18349 17.3077 8.99988 17.3077C8.81627 17.3077 8.64017 17.2347 8.51034 17.1049C8.38051 16.9751 8.30757 16.799 8.30757 16.6154V8.30766C8.30757 8.12405 8.38051 7.94796 8.51034 7.81813C8.64017 7.6883 8.81627 7.61536 8.99988 7.61536V7.61536ZM13.1537 8.30766C13.1537 8.12405 13.0808 7.94796 12.951 7.81813C12.8211 7.6883 12.645 7.61536 12.4614 7.61536C12.2778 7.61536 12.1017 7.6883 11.9719 7.81813C11.842 7.94796 11.7691 8.12405 11.7691 8.30766V16.6154C11.7691 16.799 11.842 16.9751 11.9719 17.1049C12.1017 17.2347 12.2778 17.3077 12.4614 17.3077C12.645 17.3077 12.8211 17.2347 12.951 17.1049C13.0808 16.9751 13.1537 16.799 13.1537 16.6154V8.30766Z" fill="#FF5A5A"/>
<path fill-rule="evenodd" clip-rule="evenodd" d="M18 4.15385C18 4.52107 17.8541 4.87325 17.5945 5.13292C17.3348 5.39258 16.9826 5.53846 16.6154 5.53846H15.9231V18C15.9231 18.7344 15.6313 19.4388 15.112 19.9581C14.5927 20.4775 13.8883 20.7692 13.1538 20.7692H4.84615C4.11171 20.7692 3.40734 20.4775 2.88801 19.9581C2.36868 19.4388 2.07692 18.7344 2.07692 18V5.53846H1.38462C1.01739 5.53846 0.66521 5.39258 0.405544 5.13292C0.145879 4.87325 0 4.52107 0 4.15385V2.76923C0 2.40201 0.145879 2.04983 0.405544 1.79016C0.66521 1.53049 1.01739 1.38462 1.38462 1.38462H6.23077C6.23077 1.01739 6.37665 0.66521 6.63631 0.405544C6.89598 0.145879 7.24816 0 7.61538 0L10.3846 0C10.7518 0 11.104 0.145879 11.3637 0.405544C11.6234 0.66521 11.7692 1.01739 11.7692 1.38462H16.6154C16.9826 1.38462 17.3348 1.53049 17.5945 1.79016C17.8541 2.04983 18 2.40201 18 2.76923V4.15385ZM3.62492 5.53846L3.46154 5.62015V18C3.46154 18.3672 3.60742 18.7194 3.86708 18.9791C4.12675 19.2387 4.47893 19.3846 4.84615 19.3846H13.1538C13.5211 19.3846 13.8733 19.2387 14.1329 18.9791C14.3926 18.7194 14.5385 18.3672 14.5385 18V5.62015L14.3751 5.53846H3.62492ZM1.38462 4.15385V2.76923H16.6154V4.15385H1.38462Z" fill="#FF5A5A"/>
</svg>
